<svg width="24" height="24" viewBox="0 0 24 24" fill="none" xmlns="http://www.w3.org/2000/svg">
<g id="alert-triangle">
<path id="Icon" d="M11.9978 9.00279V13.0028M11.9978 17.0028H12.0078M10.6131 3.89452L2.38823 18.1011C1.93203 18.8891 1.70393 19.2831 1.73764 19.6065C1.76705 19.8885 1.91482 20.1448 2.14417 20.3116C2.40713 20.5028 2.86239 20.5028 3.77292 20.5028H20.2227C21.1332 20.5028 21.5885 20.5028 21.8514 20.3116C22.0808 20.1448 22.2286 19.8885 22.258 19.6065C22.2917 19.2831 22.0636 18.8891 21.6074 18.1011L13.3825 3.89451C12.9279 3.10935 12.7006 2.71677 12.4041 2.58492C12.1454 2.4699 11.8502 2.4699 11.5915 2.58492C11.295 2.71677 11.0677 3.10935 10.6131 3.89452Z" stroke="#1849A9" stroke-width="2" stroke-linecap="round" stroke-linejoin="round"/>
</g>
</svg>
