<svg width="20" height="20" viewBox="0 0 20 20" fill="none" xmlns="http://www.w3.org/2000/svg">
<g id="annotation-info">
<path id="Icon" d="M10 11.6695V8.75281M10 5.83614H10.0083M8.25 16.0028L9.46667 17.625C9.6476 17.8663 9.73807 17.9869 9.84897 18.03C9.94611 18.0678 10.0539 18.0678 10.151 18.03C10.2619 17.9869 10.3524 17.8663 10.5333 17.625L11.75 16.0028C11.9943 15.6771 12.1164 15.5142 12.2654 15.3899C12.4641 15.2241 12.6986 15.1068 12.9504 15.0474C13.1393 15.0028 13.3429 15.0028 13.75 15.0028C14.9149 15.0028 15.4973 15.0028 15.9567 14.8125C16.5693 14.5588 17.056 14.0721 17.3097 13.4595C17.5 13.0001 17.5 12.4177 17.5 11.2528V6.50281C17.5 5.10268 17.5 4.40261 17.2275 3.86783C16.9878 3.39743 16.6054 3.01497 16.135 2.77529C15.6002 2.50281 14.9001 2.50281 13.5 2.50281H6.5C5.09987 2.50281 4.3998 2.50281 3.86502 2.77529C3.39462 3.01497 3.01217 3.39743 2.77248 3.86783C2.5 4.40261 2.5 5.10268 2.5 6.50281V11.2528C2.5 12.4177 2.5 13.0001 2.6903 13.4595C2.94404 14.0721 3.43072 14.5588 4.04329 14.8125C4.50272 15.0028 5.08515 15.0028 6.25 15.0028C6.65715 15.0028 6.86072 15.0028 7.04959 15.0474C7.30141 15.1068 7.53593 15.2241 7.73458 15.3899C7.88357 15.5142 8.00571 15.6771 8.25 16.0028Z" stroke="#A4A7AE" stroke-width="1.66667" stroke-linecap="round" stroke-linejoin="round"/>
</g>
</svg>
