<svg width="24" height="24" viewBox="0 0 24 24" fill="none" xmlns="http://www.w3.org/2000/svg">
<g id="Check icon">
<path d="M0 12.0028C0 5.37539 5.37258 0.00280762 12 0.00280762C18.6274 0.00280762 24 5.37539 24 12.0028C24 18.6302 18.6274 24.0028 12 24.0028C5.37258 24.0028 0 18.6302 0 12.0028Z" fill="#F9F5FF"/>
<path id="Icon" fill-rule="evenodd" clip-rule="evenodd" d="M17.096 7.39284L9.93602 14.3028L8.03602 12.2728C7.68602 11.9428 7.13602 11.9228 6.73602 12.2028C6.34602 12.4928 6.23602 13.0028 6.47602 13.4128L8.72602 17.0728C8.94602 17.4128 9.32601 17.6228 9.75601 17.6228C10.166 17.6228 10.556 17.4128 10.776 17.0728C11.136 16.6028 18.006 8.41284 18.006 8.41284C18.906 7.49284 17.816 6.68285 17.096 7.38285V7.39284Z" fill="#3183EF"/>
</g>
</svg>
