<svg width="20" height="20" viewBox="0 0 20 20" fill="none" xmlns="http://www.w3.org/2000/svg">
<g id="copy-01" clip-path="url(#clip0_17395_3792)">
<path id="Icon" d="M4.16797 12.5028C3.3914 12.5028 3.00311 12.5028 2.69683 12.3759C2.28845 12.2067 1.96399 11.8823 1.79484 11.4739C1.66797 11.1676 1.66797 10.7793 1.66797 10.0028V4.3361C1.66797 3.40268 1.66797 2.93597 1.84962 2.57945C2.00941 2.26585 2.26438 2.01088 2.57798 1.85109C2.9345 1.66943 3.40121 1.66943 4.33464 1.66943H10.0013C10.7779 1.66943 11.1662 1.66943 11.4724 1.7963C11.8808 1.96546 12.2053 2.28991 12.3744 2.69829C12.5013 3.00458 12.5013 3.39286 12.5013 4.16943M10.168 18.3361H15.668C16.6014 18.3361 17.0681 18.3361 17.4246 18.1544C17.7382 17.9947 17.9932 17.7397 18.153 17.4261C18.3346 17.0696 18.3346 16.6029 18.3346 15.6694V10.1694C18.3346 9.23601 18.3346 8.7693 18.153 8.41278C17.9932 8.09918 17.7382 7.84421 17.4246 7.68442C17.0681 7.50277 16.6014 7.50277 15.668 7.50277H10.168C9.23455 7.50277 8.76784 7.50277 8.41132 7.68442C8.09771 7.84421 7.84275 8.09918 7.68296 8.41278C7.5013 8.7693 7.5013 9.23601 7.5013 10.1694V15.6694C7.5013 16.6029 7.5013 17.0696 7.68296 17.4261C7.84275 17.7397 8.09771 17.9947 8.41132 18.1544C8.76784 18.3361 9.23455 18.3361 10.168 18.3361Z" stroke="#535862" stroke-width="1.66667" stroke-linecap="round" stroke-linejoin="round"/>
</g>
<defs>
<clipPath id="clip0_17395_3792">
<rect width="20" height="20" fill="white" transform="translate(0 0.00280762)"/>
</clipPath>
</defs>
</svg>
