<svg width="20" height="20" viewBox="0 0 20 20" fill="none" xmlns="http://www.w3.org/2000/svg">
<g id="edit-05" clip-path="url(#clip0_17388_1467)">
<path id="Icon" d="M9.16602 3.33613H5.66602C4.26588 3.33613 3.56582 3.33613 3.03104 3.60861C2.56063 3.84829 2.17818 4.23075 1.9385 4.70115C1.66602 5.23593 1.66602 5.936 1.66602 7.33613V14.3361C1.66602 15.7363 1.66602 16.4363 1.9385 16.9711C2.17818 17.4415 2.56063 17.824 3.03104 18.0636C3.56582 18.3361 4.26588 18.3361 5.66602 18.3361H12.666C14.0661 18.3361 14.7662 18.3361 15.301 18.0636C15.7714 17.824 16.1538 17.4415 16.3935 16.9711C16.666 16.4363 16.666 15.7363 16.666 14.3361V10.8361M6.66599 13.3361H8.06145C8.4691 13.3361 8.67292 13.3361 8.86474 13.2901C9.0348 13.2492 9.19737 13.1819 9.34649 13.0905C9.51468 12.9875 9.65881 12.8433 9.94706 12.5551L17.916 4.58613C18.6064 3.89577 18.6064 2.77648 17.916 2.08613C17.2257 1.39577 16.1064 1.39577 15.416 2.08612L7.44704 10.0551C7.15879 10.3433 7.01466 10.4875 6.91159 10.6557C6.82021 10.8048 6.75287 10.9673 6.71204 11.1374C6.66599 11.3292 6.66599 11.533 6.66599 11.9407V13.3361Z" stroke="#535862" stroke-width="1.66667" stroke-linecap="round" stroke-linejoin="round"/>
</g>
<defs>
<clipPath id="clip0_17388_1467">
<rect width="20" height="20" fill="white" transform="translate(0 0.00280762)"/>
</clipPath>
</defs>
</svg>
