<svg width="20" height="20" viewBox="0 0 20 20" fill="none" xmlns="http://www.w3.org/2000/svg">
<g id="edit-04">
<path id="Icon" d="M17.5 15.0028L16.6666 15.9145C16.2245 16.3979 15.6251 16.6695 15.0001 16.6695C14.3751 16.6695 13.7757 16.3979 13.3337 15.9145C12.891 15.4321 12.2916 15.1612 11.6668 15.1612C11.042 15.1612 10.4426 15.4321 9.99998 15.9145M2.5 16.6695H3.89545C4.3031 16.6695 4.50693 16.6695 4.69874 16.6235C4.8688 16.5826 5.03138 16.5153 5.1805 16.4239C5.34869 16.3208 5.49282 16.1767 5.78107 15.8885L16.25 5.4195C16.9404 4.72914 16.9404 3.60986 16.25 2.9195C15.5597 2.22914 14.4404 2.22914 13.75 2.9195L3.28105 13.3885C2.9928 13.6767 2.84867 13.8208 2.7456 13.989C2.65422 14.1381 2.58688 14.3007 2.54605 14.4708C2.5 14.6626 2.5 14.8664 2.5 15.2741V16.6695Z" stroke="#414651" stroke-width="1.66667" stroke-linecap="round" stroke-linejoin="round"/>
</g>
</svg>
