<svg width="25" height="24" viewBox="0 0 25 24" fill="none" xmlns="http://www.w3.org/2000/svg">
<g id="Social icon" clip-path="url(#clip0_17388_7510)">
<path id="Vector" d="M24.2663 12.2792C24.2663 11.4635 24.2001 10.6433 24.059 9.84082H12.7402V14.4618H19.222C18.953 15.9522 18.0888 17.2705 16.8233 18.1083V21.1067H20.6903C22.9611 19.0166 24.2663 15.9301 24.2663 12.2792Z" fill="#4285F4"/>
<path id="Vector_2" d="M12.7401 24.0036C15.9766 24.0036 18.7059 22.941 20.6945 21.1067L16.8276 18.1084C15.7517 18.8403 14.3627 19.2548 12.7445 19.2548C9.61388 19.2548 6.95946 17.1427 6.00705 14.3031H2.0166V17.394C4.05371 21.4462 8.2029 24.0036 12.7401 24.0036Z" fill="#34A853"/>
<path id="Vector_3" d="M6.00277 14.3031C5.50011 12.8128 5.50011 11.199 6.00277 9.70862V6.61768H2.01674C0.314734 10.0085 0.314734 14.0033 2.01674 17.3941L6.00277 14.3031Z" fill="#FBBC04"/>
<path id="Vector_4" d="M12.7401 4.75247C14.4509 4.72601 16.1044 5.36977 17.3434 6.55148L20.7695 3.12542C18.6001 1.08831 15.7208 -0.0316584 12.7401 0.00361628C8.2029 0.00361628 4.05371 2.56103 2.0166 6.61762L6.00264 9.70856C6.95064 6.86454 9.60947 4.75247 12.7401 4.75247Z" fill="#EA4335"/>
</g>
<defs>
<clipPath id="clip0_17388_7510">
<rect width="24" height="24" fill="white" transform="translate(0.5 0.00280762)"/>
</clipPath>
</defs>
</svg>
