<svg width="24" height="24" viewBox="0 0 24 24" fill="none" xmlns="http://www.w3.org/2000/svg">
<g id="hourglass-03">
<path id="Icon" d="M9 18.5028H15M6.6 2.00281H17.4C17.9601 2.00281 18.2401 2.00281 18.454 2.1118C18.6422 2.20767 18.7951 2.36066 18.891 2.54882C19 2.76273 19 3.04276 19 3.60281V5.67732C19 6.16651 19 6.4111 18.9447 6.64127C18.8957 6.84534 18.8149 7.04043 18.7053 7.21938C18.5816 7.42121 18.4086 7.59416 18.0627 7.94006L15.1314 10.8714C14.7354 11.2675 14.5373 11.4655 14.4632 11.6938C14.3979 11.8946 14.3979 12.111 14.4632 12.3118C14.5373 12.5402 14.7354 12.7382 15.1314 13.1342L18.0627 16.0655C18.4086 16.4115 18.5816 16.5844 18.7053 16.7862C18.8149 16.9652 18.8957 17.1603 18.9447 17.3643C19 17.5945 19 17.8391 19 18.3283V20.4028C19 20.9629 19 21.2429 18.891 21.4568C18.7951 21.645 18.6422 21.7979 18.454 21.8938C18.2401 22.0028 17.9601 22.0028 17.4 22.0028H6.6C6.03995 22.0028 5.75992 22.0028 5.54601 21.8938C5.35785 21.7979 5.20487 21.645 5.10899 21.4568C5 21.2429 5 20.9629 5 20.4028V18.3283C5 17.8391 5 17.5945 5.05526 17.3643C5.10425 17.1603 5.18506 16.9652 5.29472 16.7862C5.4184 16.5844 5.59135 16.4115 5.93726 16.0655L8.86863 13.1342C9.26465 12.7382 9.46265 12.5402 9.53684 12.3118C9.6021 12.111 9.6021 11.8946 9.53684 11.6938C9.46266 11.4655 9.26464 11.2674 8.86863 10.8714L5.93726 7.94006C5.59136 7.59416 5.4184 7.42121 5.29472 7.21938C5.18506 7.04043 5.10425 6.84534 5.05526 6.64127C5 6.4111 5 6.16651 5 5.67732V3.60281C5 3.04276 5 2.76273 5.10899 2.54882C5.20487 2.36066 5.35785 2.20767 5.54601 2.1118C5.75992 2.00281 6.03995 2.00281 6.6 2.00281Z" stroke="#B54708" stroke-width="2" stroke-linecap="round" stroke-linejoin="round"/>
</g>
</svg>
