<svg width="20" height="20" viewBox="0 0 20 20" fill="none" xmlns="http://www.w3.org/2000/svg">
<g id="lock-03">
<path id="Icon" d="M14.1673 9.16947V6.66947C14.1673 4.36829 12.3018 2.50281 10.0007 2.50281C7.69946 2.50281 5.83398 4.36829 5.83398 6.66947V9.16947M7.33398 17.5028H12.6673C14.0674 17.5028 14.7675 17.5028 15.3023 17.2303C15.7727 16.9906 16.1552 16.6082 16.3948 16.1378C16.6673 15.603 16.6673 14.9029 16.6673 13.5028V13.1695C16.6673 11.7693 16.6673 11.0693 16.3948 10.5345C16.1552 10.0641 15.7727 9.68164 15.3023 9.44196C14.7675 9.16947 14.0674 9.16947 12.6673 9.16947H7.33398C5.93385 9.16947 5.23379 9.16947 4.69901 9.44196C4.2286 9.68164 3.84615 10.0641 3.60647 10.5345C3.33398 11.0693 3.33398 11.7693 3.33398 13.1695V13.5028C3.33398 14.9029 3.33398 15.603 3.60647 16.1378C3.84615 16.6082 4.2286 16.9906 4.69901 17.2303C5.23379 17.5028 5.93385 17.5028 7.33398 17.5028Z" stroke="#A4A7AE" stroke-width="1.66667" stroke-linecap="round" stroke-linejoin="round"/>
</g>
</svg>
