<svg width="166" height="60" viewBox="0 0 166 60" fill="none" xmlns="http://www.w3.org/2000/svg">
<g id="AdOptics Logo">
<g id="Group 3 Copy 2">
<path id="Combined Shape" fill-rule="evenodd" clip-rule="evenodd" d="M48.8076 39.7771C43.6352 41.109 35.6025 37.7957 28.9005 31.1014C22.1984 24.407 18.8814 16.3834 20.2149 11.217C20.7638 10.9323 21.3225 10.6731 21.8893 10.4396C19.3808 11.4731 17.0305 13.008 14.9921 15.0441C6.71222 23.3144 6.71222 36.7234 14.9921 44.9937C23.272 53.2641 36.6963 53.2641 44.9762 44.9937C46.554 43.4177 47.8311 41.6552 48.8076 39.7771Z" fill="#0267EE"/>
<path id="Combined Shape_2" fill-rule="evenodd" clip-rule="evenodd" d="M35.7029 24.3068C40.7391 29.3372 46.9057 31.3337 49.4763 28.766C50.3918 27.8515 50.7277 26.4814 50.5532 24.8689C51.7934 29.8308 51.2116 35.1538 48.8078 39.777C43.6355 41.109 35.6027 37.7957 28.9006 31.1013C22.1985 24.4069 18.8815 16.3834 20.215 11.2169C24.8433 8.816 30.1722 8.23483 35.1397 9.47344C33.5256 9.29923 32.154 9.63478 31.2385 10.5492C28.6679 13.1169 30.6667 19.2763 35.7029 24.3068Z" fill="#02DEEE"/>
<ellipse id="Oval Copy 2" cx="12.8886" cy="6.57866" rx="12.8886" ry="6.57866" transform="matrix(0.707513 0.706701 -0.707513 0.706701 35.8931 5.90011)" fill="white"/>
<ellipse id="Oval Copy 2_2" cx="7.64548" cy="3.93196" rx="7.64548" ry="3.93196" transform="matrix(0.707513 0.706701 -0.707513 0.706701 39.0684 10.138)" fill="#333333"/>
</g>
<path id="ADOPTICS" fill-rule="evenodd" clip-rule="evenodd" d="M99.5534 37.6073C100.641 37.5942 101.637 37.4077 102.541 37.0478C103.445 36.6879 104.225 36.1872 104.88 35.5459C105.535 34.9046 106.046 34.1389 106.413 33.2489C106.78 32.3589 106.963 31.3707 106.963 30.2844C106.963 29.1719 106.78 28.1641 106.413 27.261C106.046 26.3579 105.535 25.5857 104.88 24.9444C104.225 24.303 103.445 23.8155 102.541 23.4817C101.637 23.148 100.641 22.9877 99.5534 23.0007C98.479 23.0007 97.4929 23.1742 96.5953 23.521C95.6978 23.8678 94.9247 24.3619 94.276 25.0033C93.6274 25.6446 93.1197 26.4201 92.7528 27.3297C92.3859 28.2394 92.2024 29.2504 92.2024 30.3629C92.2024 31.4493 92.3859 32.4374 92.7528 33.3274C93.1197 34.2175 93.6274 34.9798 94.276 35.6146C94.9247 36.2494 95.6978 36.7402 96.5953 37.0871C97.4929 37.4339 98.479 37.6073 99.5534 37.6073ZM64.0234 34.0735L62.7655 37.254H59.9941L66.0479 23.3541H68.1903L74.1851 37.254H71.3548L70.0575 34.0735H64.0234ZM64.8689 31.9527H69.193L67.0506 26.299L64.8689 31.9527ZM82.0739 37.254C82.9125 37.254 83.7675 37.1133 84.6388 36.8319C85.5102 36.5505 86.303 36.1251 87.0171 35.5557C87.7312 34.9864 88.3143 34.2665 88.7664 33.3962C89.2185 32.5258 89.4445 31.4951 89.4445 30.304C89.4445 29.1261 89.248 28.1019 88.8549 27.2316C88.4618 26.3612 87.9376 25.6381 87.2824 25.0622C86.6273 24.4863 85.8738 24.0576 85.0221 23.7762C84.1704 23.4948 83.2859 23.3541 82.3687 23.3541H76.8849V37.254H82.0739ZM79.3612 35.0148H81.2088C81.9819 35.0148 82.7124 34.9265 83.4004 34.7498C84.0883 34.5731 84.6878 34.2983 85.1988 33.9253C85.7098 33.5523 86.1128 33.0681 86.4076 32.4726C86.7024 31.8772 86.8498 31.1541 86.8498 30.3034C86.8498 29.4659 86.7188 28.7461 86.4567 28.1441C86.1947 27.542 85.831 27.0545 85.3659 26.6816C84.9007 26.3086 84.3504 26.0337 83.7148 25.8571C83.0793 25.6804 82.3816 25.592 81.6216 25.592H79.3612V35.0148ZM97.6172 34.9756C98.2003 35.2373 98.8522 35.3682 99.5729 35.3682C100.294 35.3682 100.949 35.2373 101.538 34.9756C102.128 34.7138 102.633 34.3539 103.052 33.8959C103.471 33.4378 103.795 32.8947 104.025 32.2665C104.254 31.6383 104.369 30.9513 104.369 30.2053C104.369 29.5117 104.254 28.8639 104.025 28.2618C103.795 27.6598 103.471 27.1331 103.052 26.6816C102.633 26.2301 102.128 25.8767 101.538 25.6215C100.949 25.3663 100.294 25.2387 99.5729 25.2387C98.8522 25.2387 98.2003 25.3663 97.6172 25.6215C97.0341 25.8767 96.5329 26.2301 96.1136 26.6816C95.6943 27.1331 95.37 27.6598 95.1406 28.2618C94.9113 28.8639 94.7967 29.5117 94.7967 30.2053C94.7967 30.9513 94.9113 31.6383 95.1406 32.2665C95.37 32.8947 95.6943 33.4378 96.1136 33.8959C96.5329 34.3539 97.0341 34.7138 97.6172 34.9756ZM112.945 37.254V31.5016H114.714C115.448 31.5016 116.152 31.4493 116.827 31.3446C117.502 31.2399 118.095 31.0403 118.606 30.7458C119.117 30.4513 119.523 30.0357 119.824 29.4991C120.126 28.9625 120.276 28.2557 120.276 27.3788C120.276 26.6066 120.135 25.962 119.854 25.445C119.572 24.928 119.195 24.5157 118.723 24.2082C118.252 23.9006 117.705 23.6813 117.082 23.5505C116.46 23.4196 115.815 23.3541 115.146 23.3541H110.468V37.254H112.945ZM112.945 29.3808H114.439C114.793 29.3808 115.16 29.3677 115.54 29.3415C115.92 29.3153 116.27 29.2368 116.591 29.1059C116.912 28.9751 117.175 28.7788 117.378 28.517C117.581 28.2553 117.682 27.8888 117.682 27.4177C117.682 26.9858 117.591 26.6423 117.407 26.3871C117.224 26.1319 116.988 25.9356 116.7 25.7981C116.411 25.6607 116.09 25.5724 115.736 25.5331C115.383 25.4939 115.042 25.4742 114.714 25.4742H112.945V29.3808ZM128.951 37.254V25.5922H133.216V23.3541H122.209V25.5922H126.475V37.254H128.951ZM135.994 23.3541H138.471V37.254H135.994V23.3541ZM149.267 37.6073C150.289 37.6073 151.253 37.411 152.157 37.0183C153.061 36.6257 153.827 35.9974 154.456 35.1336L152.412 33.6808C151.954 34.2698 151.459 34.6984 150.928 34.9667C150.398 35.235 149.85 35.3692 149.287 35.3692C148.566 35.3692 147.914 35.2383 147.331 34.9766C146.748 34.7148 146.247 34.3549 145.828 33.8968C145.408 33.4387 145.084 32.8955 144.855 32.2673C144.626 31.639 144.511 30.9519 144.511 30.2059C144.511 29.5122 144.626 28.8643 144.855 28.2622C145.084 27.6602 145.408 27.1334 145.828 26.6818C146.247 26.2303 146.748 25.8769 147.331 25.6217C147.914 25.3664 148.566 25.2388 149.287 25.2388C149.772 25.2388 150.253 25.3304 150.732 25.5137C151.21 25.6969 151.705 26.0634 152.216 26.6131L154.142 25.1996C153.447 24.4012 152.697 23.8351 151.891 23.5013C151.085 23.1676 150.211 23.0007 149.267 23.0007C148.193 23.0007 147.207 23.1741 146.309 23.521C145.412 23.8678 144.639 24.3619 143.99 25.0032C143.341 25.6446 142.834 26.42 142.467 27.3297C142.1 28.2393 141.916 29.2504 141.916 30.3629C141.916 31.4492 142.1 32.4374 142.467 33.3274C142.834 34.2174 143.341 34.9798 143.99 35.6146C144.639 36.2494 145.412 36.7402 146.309 37.087C147.207 37.4339 148.193 37.6073 149.267 37.6073ZM162.836 37.3325C162.22 37.5157 161.572 37.6073 160.89 37.6073C160.026 37.6073 159.194 37.4633 158.394 37.1754C157.595 36.8874 156.907 36.4032 156.33 35.7226L158.198 33.9164C158.499 34.3745 158.895 34.7311 159.387 34.9864C159.878 35.2416 160.399 35.3692 160.949 35.3692C161.238 35.3692 161.526 35.3299 161.814 35.2514C162.102 35.1729 162.365 35.0551 162.6 34.898C162.836 34.741 163.026 34.5414 163.17 34.2992C163.315 34.0571 163.387 33.779 163.387 33.4648C163.387 32.9544 163.223 32.5618 162.895 32.2869C162.568 32.012 162.161 31.7797 161.677 31.5899C161.192 31.4002 160.661 31.2202 160.085 31.05C159.508 30.8799 158.977 30.6476 158.493 30.3531C158.008 30.0586 157.601 29.666 157.274 29.1751C156.946 28.6843 156.783 28.0266 156.783 27.2021C156.783 26.4822 156.93 25.8605 157.225 25.337C157.52 24.8135 157.906 24.3783 158.384 24.0314C158.863 23.6846 159.41 23.4261 160.026 23.2559C160.641 23.0858 161.27 23.0007 161.912 23.0007C162.646 23.0007 163.357 23.112 164.045 23.3345C164.733 23.557 165.352 23.9234 165.902 24.4339L164.094 26.3382C163.832 25.9587 163.482 25.6806 163.043 25.5039C162.604 25.3272 162.142 25.2388 161.657 25.2388C161.369 25.2388 161.09 25.2715 160.822 25.337C160.553 25.4024 160.311 25.5071 160.094 25.6511C159.878 25.7951 159.705 25.9816 159.574 26.2106C159.443 26.4397 159.377 26.7113 159.377 27.0254C159.377 27.4966 159.541 27.8565 159.868 28.1052C160.196 28.3539 160.602 28.5698 161.087 28.753C161.572 28.9363 162.102 29.113 162.679 29.2831C163.256 29.4533 163.786 29.6889 164.271 29.9899C164.756 30.2909 165.162 30.6901 165.49 31.1875C165.817 31.6848 165.981 32.3458 165.981 33.1704C165.981 33.9164 165.844 34.5675 165.568 35.1238C165.293 35.68 164.923 36.1414 164.458 36.5079C163.993 36.8744 163.452 37.1492 162.836 37.3325Z" fill="#333333"/>
</g>
</svg>
