<svg width="34" height="24" viewBox="0 0 34 24" fill="none" xmlns="http://www.w3.org/2000/svg">
<path d="M0.5 4.00281C0.5 2.06981 2.067 0.502808 4 0.502808H30C31.933 0.502808 33.5 2.06981 33.5 4.00281V20.0028C33.5 21.9358 31.933 23.5028 30 23.5028H4C2.067 23.5028 0.5 21.9358 0.5 20.0028V4.00281Z" fill="white"/>
<path d="M0.5 4.00281C0.5 2.06981 2.067 0.502808 4 0.502808H30C31.933 0.502808 33.5 2.06981 33.5 4.00281V20.0028C33.5 21.9358 31.933 23.5028 30 23.5028H4C2.067 23.5028 0.5 21.9358 0.5 20.0028V4.00281Z" stroke="#E9EAEB"/>
<path d="M21.5771 5.03271C25.322 5.03271 28.3584 8.0326 28.3584 11.7329C28.3583 15.4331 25.322 18.4331 21.5771 18.4331C19.8982 18.4331 18.3629 17.8283 17.1787 16.8296C15.9945 17.8282 14.4591 18.4331 12.7803 18.4331C9.03566 18.4329 6.00011 15.433 6 11.7329C6 8.03274 9.03559 5.03294 12.7803 5.03271C14.459 5.03271 15.9945 5.63679 17.1787 6.63525C18.3629 5.63666 19.8983 5.03274 21.5771 5.03271Z" fill="#ED0006"/>
<path d="M21.5781 5.03271C25.3229 5.0328 28.3584 8.03265 28.3584 11.7329C28.3583 15.4331 25.3229 18.433 21.5781 18.4331C19.8992 18.4331 18.3639 17.8283 17.1797 16.8296C18.6368 15.6007 19.5624 13.7742 19.5625 11.7329C19.5625 9.69141 18.6371 7.86415 17.1797 6.63525C18.3639 5.63672 19.8993 5.03271 21.5781 5.03271Z" fill="#F9A000"/>
<path d="M17.1787 6.63525C18.6363 7.86415 19.5615 9.69128 19.5615 11.7329C19.5615 13.7743 18.636 15.6007 17.1787 16.8296C15.7217 15.6007 14.7969 13.774 14.7969 11.7329C14.7969 9.69157 15.7215 7.86415 17.1787 6.63525Z" fill="#FF5E00"/>
</svg>
