<svg width="199" height="48" viewBox="0 0 199 48" fill="none" xmlns="http://www.w3.org/2000/svg">
<path fill-rule="evenodd" clip-rule="evenodd" d="M27.0796 2.01388C27.5266 1.78062 28.061 1.7876 28.5018 2.03247L38.6283 7.65748C39.1045 7.92204 39.3999 8.42403 39.3999 8.96885L39.3992 20.2184C39.3992 20.7772 39.0885 21.2897 38.5931 21.5482L12.7195 35.0478C12.2724 35.2811 11.738 35.2741 11.2972 35.0291L1.17335 29.4043C0.697261 29.1397 0.40196 28.638 0.401865 28.0933L0.399902 16.8436C0.399805 16.2847 0.710492 15.7721 1.20604 15.5135L27.0796 2.01388ZM3.40006 17.7526L3.40143 25.6188L26.2752 13.6842L26.2739 5.81805L3.40006 17.7526ZM29.2739 5.89309L29.2752 13.7108L36.3994 17.669L36.3998 9.85139L29.2739 5.89309ZM34.736 20.1768L27.753 16.297L5.06503 28.1346L12.048 32.0144L34.736 20.1768Z" fill="#1570EF"/>
<path opacity="0.5" fill-rule="evenodd" clip-rule="evenodd" d="M12.7202 46.2986C12.2732 46.5319 11.7388 46.5249 11.298 46.28L1.17153 40.655C0.695256 40.3905 0.399876 39.8885 0.399911 39.3436L0.40061 28.0941C0.400644 27.5353 0.711309 27.0228 1.20674 26.7643L27.0803 13.2647C27.5274 13.0314 28.0618 13.0384 28.5027 13.2834L38.6265 18.9082C39.1025 19.1728 39.3978 19.6745 39.3979 20.2192L39.3999 31.4689C39.4 32.0278 39.0893 32.5404 38.5938 32.799L12.7202 46.2986ZM36.3997 30.5599L36.3984 22.6937L13.5246 34.6282L13.5259 42.4944L36.3997 30.5599ZM10.5259 42.4194L10.5246 34.6017L3.40045 30.6435L3.39996 38.4611L10.5259 42.4194ZM5.06377 28.1357L12.0468 32.0155L34.7348 20.1779L27.7518 16.2981L5.06377 28.1357Z" fill="#1570EF"/>
<path d="M65.4649 26.979C65.4649 30.678 62.4949 33.27 57.6349 33.27C52.7479 33.27 49.6969 30.651 49.3999 26.547H53.5579C53.6659 28.68 55.0429 30.057 57.5539 30.057C59.6329 30.057 61.1179 29.139 61.1179 27.573C61.1179 26.358 60.1729 25.629 58.5259 25.305L55.3399 24.684C52.3969 24.117 50.1289 22.524 50.1289 19.311C50.1289 15.855 53.1799 13.371 57.3649 13.371C61.7119 13.371 64.8979 15.909 65.1679 19.959H61.0099C60.8749 17.934 59.4709 16.557 57.4189 16.557C55.4209 16.557 54.2869 17.691 54.2869 19.041C54.2869 20.364 55.5019 20.931 56.9059 21.201L60.2269 21.876C63.6289 22.551 65.4649 24.117 65.4649 26.979Z" fill="#0A0D12"/>
<path d="M76.1567 29.355V32.622C75.2387 33.081 74.3747 33.27 73.2677 33.27C70.2977 33.27 68.4347 31.569 68.4347 28.329V21.795H65.5187V18.582H68.4347V14.316H72.1607V18.582H76.2917V21.795H72.1607V27.465C72.1607 29.139 72.9167 29.814 74.2667 29.814C74.9687 29.814 75.6167 29.652 76.1567 29.355Z" fill="#0A0D12"/>
<path d="M86.0893 33V31.218C85.1443 32.568 83.7133 33.27 81.7423 33.27C78.7453 33.27 76.7473 31.515 76.7473 28.815C76.7473 26.007 79.0153 24.495 83.2273 24.495C84.0373 24.495 84.7393 24.549 85.6303 24.657V23.793C85.6303 22.173 84.7123 21.228 83.1463 21.228C81.5263 21.228 80.5543 22.173 80.4193 23.793H77.0443C77.2603 20.472 79.6633 18.312 83.1463 18.312C86.9263 18.312 89.1403 20.391 89.1403 23.928V33H86.0893ZM80.2843 28.707C80.2843 29.922 81.1483 30.678 82.5523 30.678C84.4693 30.678 85.6303 29.625 85.6303 27.951V26.925C84.7393 26.79 84.1183 26.736 83.4703 26.736C81.3373 26.736 80.2843 27.411 80.2843 28.707Z" fill="#0A0D12"/>
<path d="M97.3694 33.27C93.2114 33.27 90.3494 30.192 90.3494 25.791C90.3494 21.471 93.3194 18.312 97.3694 18.312C101.122 18.312 103.903 20.85 104.362 24.738H100.42C100.231 22.821 99.0704 21.633 97.3694 21.633C95.4254 21.633 94.1834 23.226 94.1834 25.791C94.1834 28.383 95.3984 29.949 97.3694 29.949C99.0974 29.949 100.204 28.815 100.42 26.844H104.362C103.93 30.813 101.23 33.27 97.3694 33.27Z" fill="#0A0D12"/>
<path d="M109.445 33H105.692V13.614H109.445V24.684L114.71 18.582H119.03L113.063 25.494L119.732 33H114.953L109.445 26.304V33Z" fill="#0A0D12"/>
<path d="M133.938 25.791C133.938 21.525 136.449 18.312 140.337 18.312C142.065 18.312 143.523 19.068 144.603 20.445V13.614H148.329V33H144.9V30.921C143.766 32.433 142.2 33.27 140.337 33.27C136.449 33.27 133.938 30.003 133.938 25.791ZM137.799 25.791C137.799 28.491 139.338 29.922 141.174 29.922C143.037 29.922 144.576 28.464 144.576 25.737C144.576 23.01 143.01 21.633 141.174 21.633C139.338 21.633 137.799 23.037 137.799 25.791Z" fill="#0A0D12"/>
<path d="M168.013 33H155.485V13.614H159.589V29.301H168.013V33Z" fill="#0A0D12"/>
<path d="M178.013 33V31.218C177.068 32.568 175.637 33.27 173.666 33.27C170.669 33.27 168.671 31.515 168.671 28.815C168.671 26.007 170.939 24.495 175.151 24.495C175.961 24.495 176.663 24.549 177.554 24.657V23.793C177.554 22.173 176.636 21.228 175.07 21.228C173.45 21.228 172.478 22.173 172.343 23.793H168.968C169.184 20.472 171.587 18.312 175.07 18.312C178.85 18.312 181.064 20.391 181.064 23.928V33H178.013ZM172.208 28.707C172.208 29.922 173.072 30.678 174.476 30.678C176.393 30.678 177.554 29.625 177.554 27.951V26.925C176.663 26.79 176.042 26.736 175.394 26.736C173.261 26.736 172.208 27.411 172.208 28.707Z" fill="#0A0D12"/>
<path d="M197.609 25.791C197.609 30.003 195.098 33.27 191.21 33.27C189.347 33.27 187.781 32.433 186.674 30.921V33H183.218V13.614H186.971V20.445C188.024 19.041 189.482 18.312 191.21 18.312C195.098 18.312 197.609 21.525 197.609 25.791ZM193.748 25.791C193.748 23.037 192.209 21.633 190.373 21.633C188.564 21.633 186.998 23.01 186.998 25.737C186.998 28.464 188.51 29.922 190.373 29.922C192.209 29.922 193.748 28.491 193.748 25.791Z" fill="#0A0D12"/>
<path d="M126.59 33.243C130.532 33.243 133.313 30.921 133.34 27.627H129.695C129.587 29.274 128.399 30.273 126.536 30.273C124.592 30.273 123.458 29.301 123.458 27.681C123.458 26.088 124.781 25.143 127.022 25.143H128.993V22.173H127.238C125.402 22.173 124.295 21.255 124.295 19.77C124.295 18.339 125.24 17.448 126.806 17.448C128.345 17.448 129.317 18.42 129.344 20.013H132.989C132.962 16.854 130.208 14.478 126.617 14.478C122.783 14.478 120.434 16.557 120.434 19.5C120.434 21.174 121.406 22.497 123.161 23.415C120.893 24.144 119.597 25.602 119.597 27.573C119.597 30.948 122.405 33.243 126.59 33.243Z" fill="#0A0D12"/>
</svg>
