<svg width="202" height="48" viewBox="0 0 202 48" fill="none" xmlns="http://www.w3.org/2000/svg">
<path fill-rule="evenodd" clip-rule="evenodd" d="M19.1277 33.2066C19.9568 32.2118 21.1849 31.6365 22.48 31.6365H40.0725C44.8925 31.6365 48.7998 27.7292 48.7998 22.9093V18.5456C48.7998 13.7257 44.8925 9.81836 40.0725 9.81836H36.6618C35.3668 9.81836 34.1386 10.3936 33.3096 11.3885L30.4719 14.7937C29.6428 15.7886 28.4147 16.3638 27.1196 16.3638H9.52708C4.70714 16.3638 0.799805 20.2711 0.799805 25.0911V29.4547C0.799805 34.2747 4.70714 38.182 9.52708 38.182H12.9378C14.2328 38.182 15.461 37.6068 16.29 36.6119L19.1277 33.2066ZM42.2544 18.5456C42.2544 17.3406 41.2775 16.3638 40.0725 16.3638H33.3891C32.094 16.3638 30.8659 16.939 30.0368 17.9339L27.1991 21.3392C26.3701 22.334 25.1419 22.9093 23.8469 22.9093H9.52708C8.32209 22.9093 7.34526 23.8861 7.34526 25.0911V29.4547C7.34526 30.6597 8.32209 31.6365 9.52708 31.6365H16.2105C17.5056 31.6365 18.7337 31.0613 19.5628 30.0664L22.4005 26.6612C23.2295 25.6663 24.4577 25.0911 25.7527 25.0911H40.0725C41.2775 25.0911 42.2544 24.1143 42.2544 22.9093V18.5456Z" fill="#0A0D12"/>
<path d="M75.9448 33.0005L72.9478 22.4435L72.5158 20.4995L72.0568 22.4435L69.0868 33.0005H64.2268L58.7998 14.6405H63.4168L66.3598 26.6825L66.8458 28.8695L67.3318 26.6825L70.7338 14.6405H74.5138L77.8888 26.6825L78.3748 28.8695L78.8608 26.6825L81.8038 14.6405H86.1778L80.7508 33.0005H75.9448Z" fill="#0A0D12"/>
<path d="M90.4632 23.2805H86.3322C86.7642 20.0135 89.2752 18.0155 93.0012 18.0155C97.1592 18.0155 99.3192 20.4455 99.3192 23.8205V29.3825C99.3192 31.2725 99.4812 32.2445 99.7242 33.0005H95.4582C95.3232 32.5145 95.2422 31.8935 95.2152 31.1915C94.0812 32.7575 92.3532 33.4325 90.6252 33.4325C87.8712 33.4325 85.8192 32.0285 85.8192 29.2475C85.8192 27.2765 86.9532 25.7645 89.2482 24.9545C91.1382 24.3335 92.9472 24.1445 95.1882 24.1175V23.7935C95.1882 22.2005 94.4052 21.3635 92.8122 21.3635C91.4082 21.3635 90.6522 22.1465 90.4632 23.2805ZM89.9502 28.9775C89.9502 29.9495 90.6792 30.5705 91.8942 30.5705C93.7302 30.5705 95.1882 29.0855 95.1882 27.0875V26.5205C91.0032 26.6015 89.9502 27.6275 89.9502 28.9775Z" fill="#0A0D12"/>
<path d="M101.72 33.0005V18.4745H105.851V20.4995C106.769 18.7715 108.173 18.0155 109.658 18.0155C110.252 18.0155 110.792 18.1775 111.089 18.4745V21.9575C110.603 21.8495 110.09 21.7955 109.442 21.7955C106.958 21.7955 105.851 23.1995 105.851 25.4945V33.0005H101.72Z" fill="#0A0D12"/>
<path d="M116.332 38.9675H112.201V18.4745H116.332V19.9865C117.223 18.7175 118.465 18.0155 119.977 18.0155C123.73 18.0155 126.079 20.9585 126.079 25.7105C126.079 30.6515 123.676 33.4325 119.977 33.4325C118.438 33.4325 117.196 32.7845 116.332 31.5425V38.9675ZM119.113 21.3635C117.277 21.3635 116.332 22.9025 116.332 25.7105C116.332 28.5185 117.304 30.0845 119.113 30.0845C120.895 30.0845 121.84 28.5455 121.84 25.7105C121.84 22.9025 120.868 21.3635 119.113 21.3635Z" fill="#0A0D12"/>
<path d="M131.31 22.4975C131.31 25.3595 140.301 22.8485 140.301 28.5995C140.301 31.4615 137.655 33.4325 133.875 33.4325C130.203 33.4325 127.557 31.8125 127.017 28.2215H131.148C131.337 29.5715 132.444 30.3005 133.983 30.3005C135.441 30.3005 136.17 29.7335 136.17 28.8425C136.17 26.0345 127.368 28.5455 127.368 22.7135C127.368 20.2835 129.339 18.0155 133.227 18.0155C136.71 18.0155 139.356 19.6085 139.761 23.2805H135.657C135.414 21.7955 134.55 21.1745 133.092 21.1745C132.012 21.1745 131.31 21.7145 131.31 22.4975Z" fill="#0A0D12"/>
<path d="M145.97 38.9675H141.839V18.4745H145.97V19.9865C146.861 18.7175 148.103 18.0155 149.615 18.0155C153.368 18.0155 155.717 20.9585 155.717 25.7105C155.717 30.6515 153.314 33.4325 149.615 33.4325C148.076 33.4325 146.834 32.7845 145.97 31.5425V38.9675ZM148.751 21.3635C146.915 21.3635 145.97 22.9025 145.97 25.7105C145.97 28.5185 146.942 30.0845 148.751 30.0845C150.533 30.0845 151.478 28.5455 151.478 25.7105C151.478 22.9025 150.506 21.3635 148.751 21.3635Z" fill="#0A0D12"/>
<path d="M171.046 28.2215C170.29 31.5695 167.59 33.4325 164.026 33.4325C159.517 33.4325 156.736 30.5165 156.736 25.7375C156.736 20.7965 159.544 18.0155 163.864 18.0155C168.211 18.0155 170.938 20.9045 170.938 25.6565V26.5745H160.948C161.164 28.8965 162.244 30.1385 164.026 30.1385C165.376 30.1385 166.294 29.5445 166.726 28.2215H171.046ZM163.864 21.3095C162.325 21.3095 161.353 22.3085 161.029 24.1985H166.672C166.348 22.3085 165.376 21.3095 163.864 21.3095Z" fill="#0A0D12"/>
<path d="M186.352 28.2215C185.596 31.5695 182.896 33.4325 179.332 33.4325C174.823 33.4325 172.042 30.5165 172.042 25.7375C172.042 20.7965 174.85 18.0155 179.17 18.0155C183.517 18.0155 186.244 20.9045 186.244 25.6565V26.5745H176.254C176.47 28.8965 177.55 30.1385 179.332 30.1385C180.682 30.1385 181.6 29.5445 182.032 28.2215H186.352ZM179.17 21.3095C177.631 21.3095 176.659 22.3085 176.335 24.1985H181.978C181.654 22.3085 180.682 21.3095 179.17 21.3095Z" fill="#0A0D12"/>
<path d="M193.424 33.4325C189.698 33.4325 187.349 30.5165 187.349 25.7375C187.349 20.7965 189.752 18.0155 193.424 18.0155C194.963 18.0155 196.205 18.6635 197.096 19.9055V13.5605H201.227V33.0005H197.096V31.4615C196.205 32.7305 194.936 33.4325 193.424 33.4325ZM194.315 30.0845C196.151 30.0845 197.096 28.5725 197.096 25.7375C197.096 22.9295 196.124 21.3635 194.315 21.3635C192.533 21.3635 191.588 22.9025 191.588 25.7375C191.588 28.5455 192.56 30.0845 194.315 30.0845Z" fill="#0A0D12"/>
</svg>
