<svg width="148" height="48" viewBox="0 0 148 48" fill="none" xmlns="http://www.w3.org/2000/svg">
<path d="M20.2002 4L24.4862 13.6525L34.3423 9.85786L30.5476 19.7139L40.2002 24L30.5476 28.2861L34.3423 38.1421L24.4862 34.3475L20.2002 44L15.9141 34.3475L6.05806 38.1421L9.85274 28.2861L0.200195 24L9.85274 19.7139L6.05806 9.85786L15.9141 13.6525L20.2002 4Z" fill="#0A0D12"/>
<path d="M67.4664 16.844C67.9144 17.292 68.4744 17.516 69.1464 17.516C69.8184 17.516 70.3691 17.292 70.7984 16.844C71.2277 16.3773 71.4424 15.8173 71.4424 15.164C71.4424 14.492 71.2277 13.932 70.7984 13.484C70.3691 13.036 69.8184 12.812 69.1464 12.812C68.4744 12.812 67.9144 13.036 67.4664 13.484C67.0371 13.932 66.8224 14.492 66.8224 15.164C66.8224 15.8173 67.0371 16.3773 67.4664 16.844Z" fill="#0A0D12"/>
<path d="M52.5962 23.2725L60.1562 33H65.6162L57.3383 22.6398L65.3362 13.232H59.9042L52.5962 22.1494V13.232H48.2002V33H52.5962V23.2725Z" fill="#0A0D12"/>
<path d="M78.2392 23.592C77.8658 24.04 77.6792 24.656 77.6792 25.44V33H73.3952V25.356C73.3952 24.1053 73.6658 23.0133 74.2072 22.08C74.7672 21.128 75.5325 20.3907 76.5032 19.868C77.4925 19.3453 78.6312 19.084 79.9192 19.084C81.2258 19.084 82.3645 19.3453 83.3352 19.868C84.3058 20.3907 85.0618 21.1187 85.6032 22.052C86.1445 22.9853 86.4152 24.0867 86.4152 25.356V33H82.1312V25.44C82.1312 24.656 81.9352 24.04 81.5432 23.592C81.1698 23.1253 80.6285 22.892 79.9192 22.892C79.1912 22.892 78.6312 23.1253 78.2392 23.592Z" fill="#0A0D12"/>
<path d="M92.8543 32.664C93.6756 33.0933 94.6276 33.308 95.7103 33.308C96.7556 33.308 97.605 33.1493 98.2583 32.832C98.9116 32.5147 99.4996 32.0573 100.022 31.46L97.4183 28.828C97.2316 29.0333 97.017 29.192 96.7743 29.304C96.5503 29.3973 96.2796 29.444 95.9623 29.444C95.589 29.444 95.2623 29.3227 94.9823 29.08C94.721 28.8373 94.5903 28.4733 94.5903 27.988V23.06H99.0423V19.392H94.5903V13.764H90.3063V19.392H87.2823V23.06H90.3063V27.96C90.3063 29.0613 90.5303 30.0133 90.9783 30.816C91.4263 31.6187 92.0516 32.2347 92.8543 32.664Z" fill="#0A0D12"/>
<path d="M106.223 33.336C105.421 33.336 104.627 33.2333 103.843 33.028C103.078 32.8227 102.359 32.5333 101.687 32.16C101.034 31.768 100.474 31.32 100.007 30.816L102.443 28.352C102.891 28.8373 103.423 29.22 104.039 29.5C104.655 29.7613 105.327 29.892 106.055 29.892C106.559 29.892 106.942 29.8173 107.203 29.668C107.483 29.5187 107.623 29.3133 107.623 29.052C107.623 28.716 107.455 28.464 107.119 28.296C106.802 28.1093 106.391 27.9507 105.887 27.82C105.383 27.6707 104.851 27.512 104.291 27.344C103.731 27.176 103.199 26.9427 102.695 26.644C102.191 26.3453 101.781 25.9347 101.463 25.412C101.146 24.8707 100.987 24.1893 100.987 23.368C100.987 22.4907 101.211 21.7347 101.659 21.1C102.107 20.4467 102.742 19.9333 103.563 19.56C104.385 19.1867 105.346 19 106.447 19C107.605 19 108.669 19.2053 109.639 19.616C110.629 20.008 111.431 20.596 112.047 21.38L109.611 23.844C109.182 23.34 108.697 22.9853 108.155 22.78C107.633 22.5747 107.119 22.472 106.615 22.472C106.13 22.472 105.766 22.5467 105.523 22.696C105.281 22.8267 105.159 23.0227 105.159 23.284C105.159 23.564 105.318 23.788 105.635 23.956C105.953 24.124 106.363 24.2733 106.867 24.404C107.371 24.5347 107.903 24.6933 108.463 24.88C109.023 25.0667 109.555 25.3187 110.059 25.636C110.563 25.9533 110.974 26.3827 111.291 26.924C111.609 27.4467 111.767 28.1373 111.767 28.996C111.767 30.3213 111.263 31.376 110.255 32.16C109.266 32.944 107.922 33.336 106.223 33.336Z" fill="#0A0D12"/>
<path d="M116.248 32.552C117.218 33.056 118.329 33.308 119.58 33.308C120.83 33.308 121.932 33.056 122.884 32.552C123.836 32.0293 124.582 31.32 125.124 30.424C125.665 29.5093 125.936 28.4547 125.936 27.26V19.392H121.652V27.232C121.652 27.9413 121.465 28.5013 121.092 28.912C120.718 29.304 120.214 29.5 119.58 29.5C119.132 29.5 118.749 29.4067 118.432 29.22C118.114 29.0333 117.872 28.772 117.704 28.436C117.554 28.1 117.48 27.6987 117.48 27.232V19.392H113.196V27.288C113.196 28.464 113.466 29.5093 114.008 30.424C114.549 31.32 115.296 32.0293 116.248 32.552Z" fill="#0A0D12"/>
<path fill-rule="evenodd" clip-rule="evenodd" d="M133.441 39.048C132.191 39.048 131.061 38.824 130.053 38.376C129.064 37.928 128.28 37.3027 127.701 36.5C127.141 35.716 126.861 34.8107 126.861 33.784C126.861 32.9627 126.973 32.2907 127.197 31.768C127.44 31.2453 127.804 30.732 128.289 30.228L131.341 32.188C131.173 32.3747 131.043 32.5707 130.949 32.776C130.856 32.9813 130.809 33.224 130.809 33.504C130.809 34.064 131.043 34.512 131.509 34.848C131.976 35.184 132.629 35.352 133.469 35.352C134.365 35.352 135.056 35.1373 135.541 34.708C136.027 34.2973 136.269 33.7093 136.269 32.944C136.269 32.44 136.148 32.0013 135.905 31.628C135.663 31.236 135.317 30.9373 134.869 30.732C134.44 30.508 133.945 30.396 133.385 30.396C132.321 30.396 131.36 30.1533 130.501 29.668C129.661 29.164 128.989 28.492 128.485 27.652C128 26.7933 127.757 25.832 127.757 24.768C127.757 23.6667 128.009 22.696 128.513 21.856C129.036 20.9973 129.736 20.3253 130.613 19.84C131.509 19.3547 132.508 19.112 133.609 19.112C134.554 19.112 135.417 19.2907 136.197 19.648L138.453 17.432L140.917 19.896L138.826 21.9875C139.25 22.7302 139.461 23.5637 139.461 24.488C139.461 25.5147 139.209 26.42 138.705 27.204C138.391 27.7119 137.998 28.1493 137.527 28.5162C138.257 28.984 138.845 29.5732 139.293 30.284C139.835 31.1427 140.105 32.1227 140.105 33.224C140.105 34.3627 139.825 35.3707 139.265 36.248C138.705 37.1253 137.931 37.8067 136.941 38.292C135.952 38.796 134.785 39.048 133.441 39.048ZM133.609 26.868C134.039 26.868 134.412 26.784 134.729 26.616C135.047 26.4293 135.299 26.1773 135.485 25.86C135.672 25.5427 135.765 25.1787 135.765 24.768C135.765 24.3573 135.672 23.9933 135.485 23.676C135.317 23.3587 135.065 23.116 134.729 22.948C134.412 22.7613 134.039 22.668 133.609 22.668C133.18 22.668 132.807 22.7613 132.489 22.948C132.172 23.116 131.92 23.3587 131.733 23.676C131.547 23.9933 131.453 24.3573 131.453 24.768C131.453 25.1787 131.547 25.5427 131.733 25.86C131.92 26.1773 132.172 26.4293 132.489 26.616C132.825 26.784 133.199 26.868 133.609 26.868Z" fill="#0A0D12"/>
<path d="M142.528 16.844C142.976 17.292 143.536 17.516 144.208 17.516C144.88 17.516 145.431 17.292 145.86 16.844C146.29 16.3773 146.504 15.8173 146.504 15.164C146.504 14.492 146.29 13.932 145.86 13.484C145.431 13.036 144.88 12.812 144.208 12.812C143.536 12.812 142.976 13.036 142.528 13.484C142.099 13.932 141.884 14.492 141.884 15.164C141.884 15.8173 142.099 16.3773 142.528 16.844Z" fill="#0A0D12"/>
<path d="M66.9904 19.392V33H71.2744V19.392H66.9904Z" fill="#0A0D12"/>
<path d="M142.052 19.392V33H146.336V19.392H142.052Z" fill="#0A0D12"/>
</svg>
