<svg width="182" height="48" viewBox="0 0 182 48" fill="none" xmlns="http://www.w3.org/2000/svg">
<path fill-rule="evenodd" clip-rule="evenodd" d="M16.7747 28.4933L21.3435 33.0621C24.1239 35.8425 28.6317 35.8425 31.4121 33.0621C32.329 32.1452 32.9436 31.0403 33.2557 29.8715L36.4463 33.0621C39.2267 35.8425 43.7345 35.8425 46.5148 33.0621C49.2952 30.2818 49.2952 25.774 46.5148 22.9936L36.4463 12.9251C33.666 10.1448 29.1581 10.1448 26.3778 12.9251C25.4608 13.8421 24.8463 14.9469 24.5342 16.1157L21.3435 12.9251C18.5632 10.1448 14.0554 10.1448 11.275 12.9251L2.98946 21.2107C-0.196355 24.3965 -0.196355 29.5617 2.98946 32.7475C6.17527 35.9333 11.3405 35.9333 14.5263 32.7475C15.7323 31.5415 16.4818 30.0519 16.7747 28.4933ZM18.8264 15.4422C17.4362 14.0521 15.1823 14.0521 13.7921 15.4422C12.4026 16.8318 12.402 19.0844 13.7904 20.4747L23.8607 30.545C25.2508 31.9352 27.5048 31.9352 28.8949 30.545C30.2844 29.1556 30.2851 26.9033 28.8971 25.513L18.8264 15.4422ZM12.0092 23.7278L8.75788 20.4765L5.50659 23.7278C3.71095 25.5234 3.71095 28.4347 5.50659 30.2304C7.30223 32.026 10.2135 32.026 12.0092 30.2304C13.8048 28.4347 13.8048 25.5234 12.0092 23.7278ZM28.892 20.4735C27.5048 19.0831 27.5057 16.8314 28.8949 15.4422C30.2851 14.0521 32.539 14.0521 33.9292 15.4422L43.9977 25.5108C45.3879 26.9009 45.3879 29.1548 43.9977 30.545C42.6075 31.9352 40.3536 31.9352 38.9635 30.545L28.892 20.4735Z" fill="#DD2590"/>
<path d="M61.1531 32.9998H56.6001V11.5398H61.1531L67.5331 25.5478L73.9421 11.5398H78.5531V32.9998H74.0001V28.5048C74.0001 23.8648 74.0001 22.8498 74.2321 21.2548L69.6791 30.9998H65.3871L60.8631 21.2548C61.1241 22.8498 61.1531 24.6478 61.1531 26.9968V32.9998Z" fill="#0A0D12"/>
<path d="M86.8509 33.3768C83.7769 33.3768 81.8629 31.5788 81.8629 28.7368C81.8629 26.0688 83.7479 24.4158 87.2279 24.1548L91.2879 23.8358V23.6038C91.2879 22.1828 90.4179 21.4288 88.8229 21.4288C86.9379 21.4288 85.9229 22.1538 85.9229 23.4588H82.2109C82.2109 20.1818 84.9079 18.0358 89.055 18.0358C93.2599 18.0358 95.638 20.3848 95.638 24.5318V32.9998H91.694L91.4039 31.0858C90.9399 32.4198 89.0259 33.3768 86.8509 33.3768ZM88.417 30.0708C90.128 30.0708 91.3169 29.2298 91.3169 27.5768V26.7938L89.055 26.9968C87.1119 27.1708 86.4159 27.6058 86.4159 28.5338C86.4159 29.5778 87.0539 30.0708 88.417 30.0708Z" fill="#0A0D12"/>
<path d="M98.1161 25.4888C98.1161 21.0808 100.987 18.0068 105.076 18.0068C107.048 18.0068 108.614 18.7608 109.397 19.9498L109.629 18.4998H113.834V32.0718C113.834 37.2628 110.847 40.3948 105.888 40.3948C101.451 40.3948 98.4641 37.8718 98.0581 33.7538H102.582C102.669 35.3778 103.887 36.3348 105.859 36.3348C108.005 36.3348 109.368 35.0588 109.368 32.9998V31.1148C108.498 32.1588 106.874 32.8258 104.989 32.8258C100.929 32.8258 98.1161 29.8388 98.1161 25.4888ZM102.611 25.3728C102.611 27.4608 104.003 28.9398 105.975 28.9398C108.005 28.9398 109.368 27.5188 109.368 25.3728C109.368 23.2558 108.005 21.8928 105.946 21.8928C103.974 21.8928 102.611 23.3138 102.611 25.3728Z" fill="#0A0D12"/>
<path d="M121.659 32.9998H117.193V18.4998H121.398L121.688 20.0078C122.587 18.7608 124.24 18.0358 126.125 18.0358C129.576 18.0358 131.577 20.2398 131.577 24.0388V32.9998H127.111V25.1118C127.111 23.2848 126.096 22.0958 124.559 22.0958C122.79 22.0958 121.659 23.2558 121.659 25.0538V32.9998Z" fill="#0A0D12"/>
<path d="M133.997 25.7208C133.997 21.1388 137.361 18.0648 142.001 18.0648C146.612 18.0648 149.976 21.1388 149.976 25.7208C149.976 30.3028 146.612 33.3478 142.001 33.3478C137.361 33.3478 133.997 30.3028 133.997 25.7208ZM138.492 25.6918C138.492 27.8958 139.913 29.3458 142.001 29.3458C144.06 29.3458 145.481 27.8958 145.481 25.6918C145.481 23.5168 144.06 22.0668 142.001 22.0668C139.913 22.0668 138.492 23.5168 138.492 25.6918Z" fill="#0A0D12"/>
<path d="M157.031 32.9998H152.565V11.1338H157.031V32.9998Z" fill="#0A0D12"/>
<path d="M162.585 16.2378C161.164 16.2378 160.033 15.1068 160.033 13.6858C160.033 12.2648 161.164 11.1628 162.585 11.1628C163.977 11.1628 165.108 12.2648 165.108 13.6858C165.108 15.1068 163.977 16.2378 162.585 16.2378ZM160.381 32.9998V18.4998H164.847V32.9998H160.381Z" fill="#0A0D12"/>
<path d="M172.577 33.3768C169.503 33.3768 167.589 31.5788 167.589 28.7368C167.589 26.0688 169.474 24.4158 172.954 24.1548L177.014 23.8358V23.6038C177.014 22.1828 176.144 21.4288 174.549 21.4288C172.664 21.4288 171.649 22.1538 171.649 23.4588H167.937C167.937 20.1818 170.634 18.0358 174.781 18.0358C178.986 18.0358 181.364 20.3848 181.364 24.5318V32.9998H177.42L177.13 31.0858C176.666 32.4198 174.752 33.3768 172.577 33.3768ZM174.143 30.0708C175.854 30.0708 177.043 29.2298 177.043 27.5768V26.7938L174.781 26.9968C172.838 27.1708 172.142 27.6058 172.142 28.5338C172.142 29.5778 172.78 30.0708 174.143 30.0708Z" fill="#0A0D12"/>
</svg>
