<svg width="21" height="20" viewBox="0 0 21 20" fill="none" xmlns="http://www.w3.org/2000/svg">
<g id="play-circle">
<g id="Icon">
<path d="M10.5003 18.3334C15.1027 18.3334 18.8337 14.6024 18.8337 10C18.8337 5.39765 15.1027 1.66669 10.5003 1.66669C5.89795 1.66669 2.16699 5.39765 2.16699 10C2.16699 14.6024 5.89795 18.3334 10.5003 18.3334Z" stroke="#A4A7AE" stroke-width="1.66667" stroke-linecap="round" stroke-linejoin="round"/>
<path d="M8.41699 7.47113C8.41699 7.07339 8.41699 6.87452 8.50011 6.7635C8.57254 6.66675 8.68342 6.60622 8.80397 6.59761C8.94231 6.58773 9.1096 6.69527 9.44416 6.91035L13.378 9.43923C13.6683 9.62587 13.8135 9.71919 13.8636 9.83785C13.9074 9.94152 13.9074 10.0585 13.8636 10.1622C13.8135 10.2809 13.6683 10.3742 13.378 10.5608L9.44416 13.0897C9.1096 13.3048 8.94231 13.4123 8.80397 13.4024C8.68342 13.3938 8.57254 13.3333 8.50011 13.2365C8.41699 13.1255 8.41699 12.9266 8.41699 12.5289V7.47113Z" stroke="#A4A7AE" stroke-width="1.66667" stroke-linecap="round" stroke-linejoin="round"/>
</g>
</g>
</svg>
