<svg width="30" height="30" viewBox="0 0 30 30" fill="none" xmlns="http://www.w3.org/2000/svg">
<g id="puzzle-piece-01">
<path id="Icon" d="M9.375 5.62781C9.375 3.90192 10.7741 2.50281 12.5 2.50281C14.2259 2.50281 15.625 3.90192 15.625 5.62781V7.50281H16.875C18.6223 7.50281 19.4959 7.50281 20.1851 7.78826C21.1039 8.16886 21.8339 8.89889 22.2145 9.81774C22.5 10.5069 22.5 11.3805 22.5 13.1278H24.375C26.1009 13.1278 27.5 14.5269 27.5 16.2528C27.5 17.9787 26.1009 19.3778 24.375 19.3778H22.5V21.5028C22.5 23.603 22.5 24.6531 22.0913 25.4553C21.7317 26.1609 21.1581 26.7346 20.4525 27.0941C19.6503 27.5028 18.6002 27.5028 16.5 27.5028H15.625V25.3153C15.625 23.762 14.3658 22.5028 12.8125 22.5028C11.2592 22.5028 10 23.762 10 25.3153V27.5028H8.5C6.3998 27.5028 5.3497 27.5028 4.54754 27.0941C3.84193 26.7346 3.26825 26.1609 2.90873 25.4553C2.5 24.6531 2.5 23.603 2.5 21.5028V19.3778H4.375C6.10089 19.3778 7.5 17.9787 7.5 16.2528C7.5 14.5269 6.10089 13.1278 4.375 13.1278H2.5C2.5 11.3805 2.5 10.5069 2.78545 9.81774C3.16605 8.89889 3.89608 8.16886 4.81494 7.78826C5.50408 7.50281 6.37772 7.50281 8.125 7.50281H9.375V5.62781Z" stroke="#202939" stroke-width="2" stroke-linecap="round" stroke-linejoin="round"/>
</g>
</svg>
