<svg width="166" height="40" viewBox="0 0 166 40" fill="none" xmlns="http://www.w3.org/2000/svg">
<path opacity="0.4" d="M39.0833 17.698C37.351 19.4303 34.5423 19.4303 32.81 17.698C31.0777 15.9657 31.0777 13.1571 32.81 11.4247C34.5423 9.69241 37.351 9.69241 39.0833 11.4247C40.8156 13.1571 40.8156 15.9657 39.0833 17.698Z" fill="#155EEF"/>
<path opacity="0.6" d="M39.0792 17.6961C37.3468 19.4285 34.5382 19.4285 32.8059 17.6961L26.6106 11.5009C24.8783 9.76858 22.0696 9.76858 20.3373 11.5009C18.605 13.2332 18.605 16.0419 20.3373 17.7742L26.5326 23.9694C28.2649 25.7018 31.0735 25.7018 32.8059 23.9694L39.0792 17.6961Z" fill="#155EEF"/>
<path d="M32.8057 23.971C31.0734 25.7033 28.2648 25.7033 26.5324 23.971L14.5086 11.9472C12.1989 9.6374 8.45401 9.6374 6.14425 11.9472L0.916504 17.1749C2.64883 15.4426 5.45747 15.4426 7.1898 17.1749L20.2592 30.2443C21.9915 31.9766 24.8001 31.9766 26.5324 30.2443L32.8057 23.971Z" fill="#155EEF"/>
<path d="M61.218 27.4997L58.203 16.2047L55.188 27.4997H51.723L47.583 11.3447H50.913L53.523 22.3022L56.493 11.3447H59.9805L62.8605 22.3472L65.493 11.3447H68.8455L64.683 27.4997H61.218Z" fill="#0A0D12"/>
<path d="M73.2269 12.6947C73.2269 13.7522 72.3719 14.5397 71.1344 14.5397C69.9194 14.5397 69.0644 13.7522 69.0644 12.6947C69.0644 11.5922 69.9194 10.8047 71.1344 10.8047C72.3719 10.8047 73.2269 11.5922 73.2269 12.6947ZM72.7319 27.4997H69.6044V15.4847H72.7319V27.4997Z" fill="#0A0D12"/>
<path d="M77.765 27.4997H74.615V11.3447H77.765V27.4997Z" fill="#0A0D12"/>
<path d="M78.8821 21.4922C78.8821 17.9372 80.9746 15.2597 84.2146 15.2597C85.6546 15.2597 86.8696 15.8897 87.7696 17.0372V11.3447H90.8746V27.4997H88.0171V25.7672C87.0721 27.0272 85.7671 27.7247 84.2146 27.7247C80.9746 27.7247 78.8821 25.0022 78.8821 21.4922ZM82.0996 21.4922C82.0996 23.7422 83.3821 24.9347 84.9121 24.9347C86.4646 24.9347 87.7471 23.7197 87.7471 21.4472C87.7471 19.1747 86.4421 18.0272 84.9121 18.0272C83.3821 18.0272 82.0996 19.1972 82.0996 21.4922Z" fill="#0A0D12"/>
<path d="M97.8287 27.7247C94.3637 27.7247 91.9787 25.1597 91.9787 21.4922C91.9787 17.8922 94.4537 15.2597 97.8287 15.2597C100.956 15.2597 103.274 17.3747 103.656 20.6147H100.371C100.214 19.0172 99.2462 18.0272 97.8287 18.0272C96.2087 18.0272 95.1737 19.3547 95.1737 21.4922C95.1737 23.6522 96.1862 24.9572 97.8287 24.9572C99.2687 24.9572 100.191 24.0122 100.371 22.3697H103.656C103.296 25.6772 101.046 27.7247 97.8287 27.7247Z" fill="#0A0D12"/>
<path d="M107.892 21.6722V27.4997H104.764V15.4847H107.644V17.8022C108.522 16.2722 110.389 15.3497 112.324 15.3497V18.5897C109.669 18.3872 107.892 19.0172 107.892 21.6722Z" fill="#0A0D12"/>
<path d="M120.204 27.4997V26.0147C119.416 27.1397 118.224 27.7247 116.581 27.7247C114.084 27.7247 112.419 26.2622 112.419 24.0122C112.419 21.6722 114.309 20.4122 117.819 20.4122C118.494 20.4122 119.079 20.4572 119.821 20.5472V19.8272C119.821 18.4772 119.056 17.6897 117.751 17.6897C116.401 17.6897 115.591 18.4772 115.479 19.8272H112.666C112.846 17.0597 114.849 15.2597 117.751 15.2597C120.901 15.2597 122.746 16.9922 122.746 19.9397V27.4997H120.204ZM115.366 23.9222C115.366 24.9347 116.086 25.5647 117.256 25.5647C118.854 25.5647 119.821 24.6872 119.821 23.2922V22.4372C119.079 22.3247 118.561 22.2797 118.021 22.2797C116.244 22.2797 115.366 22.8422 115.366 23.9222Z" fill="#0A0D12"/>
<path d="M128.618 27.4997H125.513V18.1622H123.083V15.4847H125.513V14.8322C125.513 12.4472 126.795 11.0972 129.293 11.0972C130.058 11.0972 130.71 11.2322 131.228 11.4572V13.9322C130.89 13.7972 130.44 13.7297 130.035 13.7297C129.18 13.7297 128.618 14.0672 128.618 14.8997V15.4847H131.745V18.1622H128.618V27.4997Z" fill="#0A0D12"/>
<path d="M140.56 24.4622V27.1847C139.795 27.5672 139.075 27.7247 138.152 27.7247C135.677 27.7247 134.125 26.3072 134.125 23.6072V18.1622H131.695V15.4847H134.125V11.9297H137.23V15.4847H140.672V18.1622H137.23V22.8872C137.23 24.2822 137.86 24.8447 138.985 24.8447C139.57 24.8447 140.11 24.7097 140.56 24.4622Z" fill="#0A0D12"/>
<path d="M146.638 27.7022C143.038 27.7022 140.631 25.2047 140.631 21.4472C140.631 17.8697 143.128 15.2597 146.593 15.2597C150.396 15.2597 152.916 18.3422 152.353 22.2572H143.826C144.028 24.2147 144.973 25.2947 146.571 25.2947C147.943 25.2947 148.866 24.6197 149.226 23.4272H152.331C151.656 26.1497 149.563 27.7022 146.638 27.7022ZM146.526 17.5547C145.063 17.5547 144.141 18.4997 143.871 20.2772H149.046C148.956 18.6122 148.011 17.5547 146.526 17.5547Z" fill="#0A0D12"/>
<path d="M152.541 21.4922C152.541 17.9372 154.633 15.2597 157.873 15.2597C159.313 15.2597 160.528 15.8897 161.428 17.0372V11.3447H164.533V27.4997H161.676V25.7672C160.731 27.0272 159.426 27.7247 157.873 27.7247C154.633 27.7247 152.541 25.0022 152.541 21.4922ZM155.758 21.4922C155.758 23.7422 157.041 24.9347 158.571 24.9347C160.123 24.9347 161.406 23.7197 161.406 21.4472C161.406 19.1747 160.101 18.0272 158.571 18.0272C157.041 18.0272 155.758 19.1972 155.758 21.4922Z" fill="#0A0D12"/>
</svg>
